:SAMPLES-PER-SECOND 30
:FULLY-SPECIFIED
:DEGREES
286
root  -2.69488 40.2502 -3.42268 -0.0563026 81.2676 1.69097
RightUpLeg  -13.7451 -10.6478 -6.7051
RightLeg  31.2517 -3.34312 -2.42341
RightFoot  -6.21788 -0.259711 4.85638
RightToes  0.00048216 0.542163 -0.142577
Spine  7.33056 0.516968 2.08659
Spine1  4.49029 1.43479 -4.62652
HEad  -5.33353 1.10806 1.32835
LeftShoulder1  9.97015 -14.6423 -47.9633
LeftArm  -0.9201 17.0377 -20.9117
LeftForeArm  28.6764 -9.80922 -7.66556
LeftHand  -0.25398 0.0180481 5.50724
RightShoulder  5.54203 10.1706 34.5734
RightArm  3.25649 -5.3573 38.3458
RightForeArm  2.85491 33.9145 7.40405
RightHand  -1.34654 3.20323 -18.3459
LeftUpLeg  7.73948 6.9329 1.59515
LeftLeg  7.13765 15.8852 -4.35078
LeftFoot  -13.9431 -0.0134666 -4.26324
LeftToes  1.06248e-005 4.65855e-005 -8.185e-006
287
root  -2.45301 40.2217 -3.27645 -1.79851 80.2685 0.0823804
RightUpLeg  -15.4271 -12.5211 -6.01628
RightLeg  28.7273 -3.44874 -2.27697
RightFoot  -5.3838 -0.279577 4.66753
RightToes  0.00048216 0.542163 -0.142577
Spine  8.34181 0.214078 1.77253
Spine1  4.18115 1.05251 -4.28969
HEad  -3.60712 0.762258 1.52854
LeftShoulder1  9.89273 -14.5812 -47.7485
LeftArm  -0.8733 15.0692 -20.4535
LeftForeArm  26.984 -10.9603 -7.39322
LeftHand  -0.25398 0.0180481 5.50724
RightShoulder  5.57825 10.2542 34.5896
RightArm  4.92684 -6.01367 38.8932
RightForeArm  2.83874 32.7547 7.09272
RightHand  -1.47979 3.66507 -19.125
LeftUpLeg  8.54047 7.11458 2.05015
LeftLeg  6.96587 16.3705 -4.28932
LeftFoot  -14.3404 -0.0491815 -5.15576
LeftToes  1.06248e-005 4.65855e-005 -8.185e-006
288
root  -2.16034 40.1726 -3.10143 -2.70829 79.3475 -0.630838
RightUpLeg  -16.7971 -14.9507 -5.22959
RightLeg  25.0529 -3.11268 -1.80951
RightFoot  -4.68584 -0.294905 4.51716
RightToes  0.00048216 0.542163 -0.142577
Spine  9.49948 -0.108707 1.40156
Spine1  3.9444 0.665647 -4.03467
HEad  -2.17528 0.377947 1.73044
LeftShoulder1  9.81485 -14.5308 -47.5011
LeftArm  -0.440567 13.2035 -19.9708
LeftForeArm  24.6761 -12.6157 -6.95414
LeftHand  -0.25398 0.0180481 5.50724
RightShoulder  5.65764 10.3643 34.8363
RightArm  6.15602 -6.87091 39.3615
RightForeArm  1.82585 30.7843 6.63863
RightHand  -1.69723 4.3474 -20.3687
LeftUpLeg  9.46863 7.2715 2.40798
LeftLeg  6.83768 16.9143 -4.20024
LeftFoot  -14.7639 -0.0867068 -5.86411
LeftToes  1.06248e-005 4.65855e-005 -8.185e-006
289
root  -1.8021 40.0936 -2.89504 -2.61308 78.4362 -0.308192
RightUpLeg  -17.9886 -17.694 -4.3323
RightLeg  20.8106 -2.47609 -1.28435
RightFoot  -4.15994 -0.327519 4.75977
RightToes  0.00048216 0.542163 -0.142577
Spine  10.6259 -0.393002 0.99028
Spine1  3.91842 0.340806 -3.92475
HEad  -1.15536 0.0992185 1.84527
LeftShoulder1  9.76755 -14.5262 -47.2802
LeftArm  0.167291 11.3286 -19.4537
LeftForeArm  22.2644 -14.3832 -6.41119
LeftHand  -0.25398 0.0180481 5.50724
RightShoulder  5.73882 10.4512 35.1589
RightArm  6.98391 -7.78978 39.8746
RightForeArm  -0.0602629 27.9031 6.01478
RightHand  -2.03267 5.39435 -21.9913
LeftUpLeg  10.4181 7.37348 2.54191
LeftLeg  6.93662 17.6997 -3.9989
LeftFoot  -15.3099 -0.124748 -6.24105
LeftToes  1.06248e-005 4.65855e-005 -8.185e-006
290
root  -1.37504 39.9793 -2.65459 -1.75405 77.5335 0.838814
RightUpLeg  -19.0433 -20.3502 -3.47358
RightLeg  16.6488 -2.35359 -0.809258
RightFoot  -3.40674 -0.364903 4.92786
RightToes  0.00048216 0.542163 -0.142577
Spine  11.7447 -0.622232 0.514567
Spine1  4.07383 0.0551962 -3.75765
HEad  -0.533492 -0.0214972 1.67279
LeftShoulder1  9.73867 -14.5201 -47.1538
LeftArm  0.619786 9.35657 -18.9459
LeftForeArm  20.252 -15.9522 -5.87499
LeftHand  -0.25398 0.0180481 5.50724
RightShoulder  5.78715 10.4983 35.3618
RightArm  7.50046 -8.69465 40.4471
RightForeArm  -2.09552 24.1396 5.36546
RightHand  -2.39659 6.53603 -23.4213
LeftUpLeg  11.552 7.41549 2.52298
LeftLeg  7.04089 18.3187 -3.85274
LeftFoot  -16.0498 -0.192431 -6.99852
LeftToes  1.06248e-005 4.65855e-005 -8.185e-006
291
root  -0.882911 39.827 -2.37606 -0.183647 76.6297 2.70187
RightUpLeg  -19.9067 -20.9985 -3.48432
RightLeg  13.2563 -4.94159 -0.010625
RightFoot  -2.28607 -0.360832 4.36501
RightToes  0.00048216 0.542163 -0.142577
Spine  12.8827 -0.760769 -0.0491596
Spine1  4.26848 -0.178631 -3.44611
HEad  -0.179901 -0.0973076 1.17663
LeftShoulder1  9.70588 -14.4798 -47.0992
LeftArm  0.801406 7.29422 -18.5348
LeftForeArm  18.9093 -17.1706 -5.44407
LeftHand  -0.25398 0.0180481 5.50724
RightShoulder  5.80287 10.5074 35.4455
RightArm  6.08687 -9.66998 40.769
RightForeArm  -1.96575 19.7417 5.57513
RightHand  -2.59996 7.20541 -24.0418
LeftUpLeg  12.88 7.42219 2.38011
LeftLeg  6.98068 18.7525 -3.88833
LeftFoot  -16.8612 -0.290748 -8.11638
LeftToes  1.06248e-005 4.65855e-005 -8.185e-006
292
root  -0.307709 39.6297 -2.05104 1.92385 75.7115 5.01153
RightUpLeg  -20.6537 -19.7625 -4.31522
RightLeg  10.9168 -9.38728 0.965296
RightFoot  -1.30785 -0.324756 3.59015
RightToes  0.00048216 0.542163 -0.142577
Spine  13.9122 -0.802514 -0.600333
Spine1  4.4416 -0.311561 -3.23206
HEad  0.0124044 -0.226462 0.552207
LeftShoulder1  9.68459 -14.4582 -47.0512
LeftArm  0.714903 5.33297 -18.2968
LeftForeArm  18.1165 -18.1287 -5.10129
LeftHand  -0.25398 0.0180481 5.50724
RightShoulder  5.81834 10.5145 35.533
RightArm  0.992873 -10.8702 40.5264
RightForeArm  2.14616 15.1072 6.92161
RightHand  -2.52175 7.00663 -23.6953
LeftUpLeg  14.1273 7.47784 2.10309
LeftLeg  7.15996 19.4442 -3.89757
LeftFoot  -17.7039 -0.375043 -8.65266
LeftToes  1.06248e-005 4.65855e-005 -8.185e-006
293
root  0.381158 39.388 -1.67184 3.84953 74.9139 7.0766
RightUpLeg  -21.4014 -18.8824 -4.87143
RightLeg  9.73745 -12.2218 1.41468
RightFoot  -0.840173 -0.310155 3.30576
RightToes  0.00048216 0.542163 -0.142577
Spine  14.7095 -0.866207 -0.945713
Spine1  4.73794 -0.4306 -3.19052
HEad  0.0599008 -0.318684 -0.0110955
LeftShoulder1  9.69406 -14.4902 -47.0128
LeftArm  0.317791 3.78015 -18.2489
LeftForeArm  17.5266 -19.1203 -4.75125
LeftHand  -0.25398 0.0180481 5.50724
RightShoulder  5.85882 10.572 35.6487
RightArm  -4.02349 -12.3535 39.9254
RightForeArm  6.46606 11.0571 7.53965
RightHand  -2.20747 6.00275 -22.5928
LeftUpLeg  15.3738 7.62533 1.91972
LeftLeg  7.6532 20.0204 -3.81394
LeftFoot  -18.7142 -0.460102 -8.8569
LeftToes  1.06248e-005 4.65855e-005 -8.185e-006
294
root  1.18093 39.1301 -1.23322 5.1161 74.46 8.41533
RightUpLeg  -22.219 -19.0388 -4.69406
RightLeg  10.1068 -12.3297 1.09222
RightFoot  -0.378456 -0.265834 2.74573
RightToes  0.00048216 0.542163 -0.142577
Spine  15.2839 -1.07174 -1.04071
Spine1  5.25094 -0.724895 -2.92442
HEad  0.0148268 -0.26914 -0.483873
LeftShoulder1  9.69742 -14.5024 -46.9968
LeftArm  -0.379064 2.87527 -18.4119
LeftForeArm  16.9918 -20.3641 -4.3841
LeftHand  -0.25398 0.0180481 5.50724
RightShoulder  5.89726 10.6355 35.7317
RightArm  -7.0886 -14.0436 39.1682
RightForeArm  9.49752 8.11178 7.26899
RightHand  -1.84616 4.79074 -21.1824
LeftUpLeg  16.9566 7.76998 2.13746
LeftLeg  7.76966 19.6278 -3.92622
LeftFoot  -19.7182 -0.612172 -9.94369
LeftToes  1.06248e-005 4.65855e-005 -8.185e-006
295
root  2.0668 38.9007 -0.723446 5.76285 74.3874 8.82812
RightUpLeg  -23.6819 -20.7498 -3.2533
RightLeg  12.3457 -9.70094 0.00504786
RightFoot  0.748695 -0.0762214 0.795529
RightToes  0.00048216 0.542163 -0.142577
Spine  15.6604 -1.39308 -0.908693
Spine1  5.71518 -1.22352 -2.18571
HEad  -0.00628362 -0.180238 -0.92435
LeftShoulder1  9.65903 -14.4297 -47.0004
LeftArm  -1.38645 2.76165 -18.7999
LeftForeArm  16.7767 -21.904 -4.1246
LeftHand  -0.25398 0.0180481 5.50724
RightShoulder  5.87532 10.5713 35.7655
RightArm  -8.49464 -15.9726 38.292
RightForeArm  11.0431 6.4333 6.71365
RightHand  -1.61283 4.00953 -20.0673
LeftUpLeg  18.5107 7.88077 2.83466
LeftLeg  7.56227 18.6419 -4.1052
LeftFoot  -20.162 -0.764133 -11.4489
LeftToes  1.06248e-005 4.65855e-005 -8.185e-006
